<svg width="100%" height="100%" viewBox="0 0 1005.156 1007.16" version="1.1" xmlns="http://www.w3.org/2000/svg" style="clip-rule:evenodd;fill-rule:evenodd;stroke-linejoin:round;stroke-miterlimit:2;">
    <style>
        path { fill: black; }
        @media (prefers-color-scheme: dark) {
            path { fill: white; }
        }
    </style>
    <g transform="translate(-5571.424,-2933.42)">
        <g transform="translate(1017.67,2515)">
            <rect x="4128.33" y="0" width="1856" height="1856" style="fill:none;"/>
            <g transform="translate(3813.33,-1751.5)">
                <path d="m 743.652,2744.84 -0.017,-0.03 -2.491,-6.58 -0.72,-6.87 1.042,-6.83 2.793,-6.44 0.51,-0.81 80,-123.5 4.367,-5.19 5.427,-3.88 6.213,-2.45 6.724,-0.84 h 0.58 l 4.074,-13.51 -44.403,-44.41 -4.441,-5.84 -2.675,-6.71 -0.811,-7.16 1.148,-7.26 38.165,-126.54 0.01,-0.04 2.885,-6.41 4.351,-5.36 5.565,-4.1 6.528,-2.57 0.939,-0.22 143.895,-30.76 6.75,-0.58 6.59,1.09 6.12,2.67 5.35,4.15 0.86,0.86 11.94,-6.41 v -62.8 l 0.99,-7.27 2.85,-6.63 4.49,-5.64 5.94,-4.32 116.47,-62.5 0.03,-0.01 6.58,-2.5 6.87,-0.72 6.83,1.05 6.44,2.79 0.81,0.51 123.51,80 5.18,4.37 3.88,5.42 2.45,6.22 0.84,6.72 v 1.88 l 12.51,3.77 44.41,-44.4 5.85,-4.44 6.7,-2.67 7.16,-0.82 7.26,1.15 126.54,38.17 0.04,0.01 6.41,2.88 5.37,4.35 4.09,5.57 2.57,6.53 0.22,0.93 30.76,143.9 0.58,6.75 -1.09,6.59 -2.67,6.12 -4.15,5.35 -0.86,0.86 6.41,11.94 h 62.8 l 7.27,0.99 6.63,2.85 5.65,4.49 4.31,5.95 62.5,116.46 0.02,0.03 2.49,6.58 0.72,6.87 -1.05,6.83 -2.79,6.44 -0.51,0.81 -80,123.5 -4.37,5.19 -5.42,3.88 -6.22,2.45 -6.72,0.84 h -0.58 l -4.07,13.51 44.4,44.41 4.44,5.85 2.68,6.7 0.81,7.16 -1.15,7.26 -38.17,126.54 -0.01,0.04 -2.88,6.41 -4.35,5.37 -5.57,4.09 -6.53,2.57 -0.93,0.22 -143.9,30.76 -6.75,0.58 -6.59,-1.09 -6.12,-2.67 -5.35,-4.15 -0.86,-0.86 -11.94,6.41 v 62.8 l -0.99,7.27 -2.85,6.63 -4.49,5.64 -5.94,4.32 -116.47,62.5 -0.03,0.02 -6.58,2.49 -6.87,0.72 -6.83,-1.05 -6.44,-2.79 -0.81,-0.51 -123.5,-80 -5.19,-4.37 -3.88,-5.42 -2.44,-6.22 -0.85,-6.72 v -1.88 l -12.51,-3.77 -44.41,44.4 -5.85,4.44 -6.7,2.68 -7.16,0.81 -7.26,-1.15 -126.544,-38.17 -0.033,-0.01 -6.409,-2.88 -5.369,-4.35 -4.091,-5.57 -2.578,-6.53 -0.218,-0.93 -30.76,-143.9 -0.576,-6.75 1.089,-6.59 2.666,-6.12 4.156,-5.35 0.853,-0.86 -6.407,-11.94 h -62.797 l -7.276,-0.99 -6.629,-2.85 -5.642,-4.49 -4.318,-5.95 z m 746.528,-6.41 93.05,93.05 35.23,-116.8 -93.2,-93.2 z M 778.995,2725.75 H 916.5 c 2.212,0 4.26,1.17 5.383,3.08 1.124,1.9 1.157,4.26 0.087,6.19 l -30.532,55.23 h 135.092 l 34.5,-61.32 c 1.09,-1.93 3.15,-3.18 5.45,-3.18 h 0.06 95.15 l 8.85,-33.37 -91.21,-90.98 -35.04,116.17 c -0.61,2.03 -2.21,3.61 -4.24,4.2 l -74.596,21.57 c -0.07,0.02 -0.141,0.04 -0.213,0.06 -2.129,0.53 -4.387,-0.09 -5.942,-1.64 l -0.022,-0.03 -103.216,-103.21 c -1.628,-1.63 -2.229,-4.02 -1.564,-6.23 l 5.291,-17.54 h -8.89 z m 244.155,77 H 891.556 l 57.683,107.5 h 131.801 z m 388.6,216.18 -42.8,22.97 c -0.99,0.53 -2.1,0.78 -3.19,0.74 -1.11,0.04 -2.23,-0.21 -3.27,-0.78 l -54.74,-30.26 v 127.95 l 104,-55.8 z m 61.17,-193 -54.96,-30.3 -103.48,55.52 54.39,30.61 z m 133.28,-27.34 -14.02,46.5 c -0.33,1.08 -0.93,2.04 -1.74,2.78 -0.75,0.81 -1.72,1.44 -2.86,1.76 l -60.1,17.31 90.48,90.48 34.08,-113 z m -233.95,95.76 v 131.59 l 107.5,-57.68 v -131.8 z m 202.23,-53.95 -95.53,-95.52 -67.75,18.96 c -2.14,0.59 -4.48,0.02 -6.1,-1.6 l -0.05,-0.05 -67.28,-67.28 -29.85,17.34 0.16,128.15 106.97,-57.4 c 1.86,-1 4.11,-0.99 5.97,0.04 l 68,37.49 c 0.06,0.03 0.13,0.07 0.19,0.11 1.88,1.12 3.04,3.16 3.04,5.36 v 0.03 145.97 c 0,2.3 -1.27,4.42 -3.3,5.51 l -16.63,8.93 6.72,6.72 129.34,-27.64 -97.24,-97.23 c -1.56,-1.57 -2.18,-3.84 -1.63,-5.98 0.56,-2.15 2.2,-3.84 4.33,-4.45 z m -662.955,-333.8 95.525,95.52 67.75,-18.96 c 2.14,-0.59 4.48,-0.02 6.1,1.6 l 0.05,0.05 67.28,67.28 29.85,-17.34 -0.16,-128.15 -106.97,57.4 c -1.86,1 -4.11,0.99 -5.97,-0.04 l -67.997,-37.49 c -0.065,-0.03 -0.129,-0.07 -0.192,-0.11 -1.884,-1.12 -3.041,-3.16 -3.041,-5.36 V 2520.97 2375 c 0,-2.3 1.266,-4.42 3.295,-5.51 l 16.645,-8.93 -6.73,-6.72 -129.336,27.64 97.231,97.23 c 1.564,1.57 2.185,3.84 1.632,5.98 -0.552,2.15 -2.196,3.84 -4.322,4.45 z m 207.385,530.1 -46.5,-14.02 c -1.08,-0.33 -2.04,-0.93 -2.78,-1.74 -0.81,-0.75 -1.44,-1.72 -1.76,-2.86 l -17.31,-60.1 -90.481,90.48 113.001,34.07 z m 475.65,-479.95 h -135.09 l -34.5,61.32 c -1.09,1.93 -3.15,3.18 -5.45,3.18 h -0.06 -95.15 l -8.85,33.37 91.21,90.98 35.04,-116.17 c 0.61,-2.03 2.21,-3.61 4.24,-4.2 l 74.6,-21.57 c 0.07,-0.02 0.14,-0.04 0.21,-0.06 2.13,-0.53 4.39,0.09 5.94,1.64 l 0.02,0.03 103.22,103.21 c 1.63,1.63 2.23,4.02 1.56,6.23 l -5.29,17.54 h 8.89 l 71.91,-111 H 1569.5 c -2.21,0 -4.26,-1.17 -5.38,-3.07 -1.13,-1.91 -1.16,-4.27 -0.09,-6.2 z m -185.66,-214.72 -95.52,95.52 18.96,67.75 c 0.59,2.14 0.02,4.48 -1.6,6.1 l -0.05,0.05 -67.28,67.28 17.34,29.85 128.15,-0.16 -57.4,-106.97 c -1,-1.86 -0.99,-4.11 0.04,-5.97 l 37.49,-68 c 0.03,-0.06 0.07,-0.13 0.11,-0.19 1.12,-1.88 3.16,-3.04 5.36,-3.04 h 0.03 145.97 c 2.3,0 4.42,1.27 5.51,3.3 l 8.93,16.63 6.72,-6.72 -27.64,-129.34 -97.23,97.24 c -1.57,1.56 -3.84,2.18 -5.98,1.63 -2.15,-0.56 -3.83,-2.2 -4.45,-4.33 z m -229.83,578.65 -93.05,93.05 116.8,35.23 93.2,-93.2 z m 408.36,-415.93 22.97,42.8 c 0.53,0.99 0.78,2.1 0.73,3.19 0.05,1.11 -0.2,2.23 -0.77,3.27 l -30.26,54.74 h 127.95 l -55.8,-104 z m -280.5,-78.43 93.05,-93.05 -116.8,-35.23 -93.2,93.2 z m -215.36,477.1 30.3,-54.96 -55.52,-103.48 -30.61,54.39 z m -78.49,-382.35 54.96,30.3 103.48,-55.52 -54.39,-30.61 z m 285.56,422.41 -17.44,-60.29 -112.43,-33.91 16.82,60.11 z m -127.93,-280.36 17.09,17.06 2.33,3.04 1.45,3.48 0.5,3.73 -0.48,3.81 -6.2,23.37 23.42,-0.03 3.8,0.5 3.49,1.44 3,2.29 2.34,3.03 12.17,20.95 16.05,-16.09 3.04,-2.33 3.49,-1.45 3.73,-0.5 3.81,0.48 23.37,6.2 -0.03,-23.42 0.5,-3.8 1.44,-3.49 2.29,-3 3.03,-2.34 20.95,-12.17 -17.09,-17.05 -2.33,-3.05 -1.45,-3.48 -0.5,-3.73 0.48,-3.81 6.2,-23.37 -23.42,0.03 -3.8,-0.5 -3.49,-1.44 -3,-2.29 -2.34,-3.03 -12.17,-20.95 -16.05,16.09 -3.04,2.33 -3.49,1.45 -3.73,0.5 -3.81,-0.48 -23.37,-6.2 0.03,23.42 -0.5,3.8 -1.44,3.49 -2.29,3 -3.03,2.34 z m 16.65,-259.6 17.44,60.29 112.44,33.91 -16.83,-60.11 z m -110.26,601.45 95.52,-95.52 -18.96,-67.75 c -0.59,-2.14 -0.02,-4.48 1.6,-6.1 l 0.05,-0.05 49.12,-49.13 18.16,-18.15 -17.34,-29.85 -128.15,0.16 57.4,106.97 c 1,1.86 0.99,4.11 -0.04,5.97 l -37.49,68 c -0.03,0.06 -0.07,0.13 -0.11,0.19 -1.12,1.88 -3.16,3.04 -5.36,3.04 h -0.03 -145.97 c -2.303,0 -4.419,-1.27 -5.507,-3.3 l -8.929,-16.63 -6.728,6.72 27.646,129.34 97.228,-97.24 c 1.57,-1.56 3.84,-2.18 5.98,-1.63 2.15,0.56 3.84,2.2 4.45,4.33 z m 385.75,-460.72 h 131.59 l -57.68,-107.5 h -131.8 z m -103.1,481.81 v -135.09 l -61.32,-34.5 c -1.93,-1.09 -3.18,-3.15 -3.18,-5.45 v -0.06 -95.15 l -33.37,-8.85 -89.98,90.21 116.17,35.04 c 2.03,0.61 3.61,2.21 4.2,4.24 l 21.57,74.6 c 0.02,0.07 0.04,0.14 0.06,0.21 0.53,2.13 -0.09,4.39 -1.64,5.94 l -0.03,0.02 -103.21,103.22 c -1.63,1.63 -4.02,2.23 -6.23,1.56 l -18.54,-5.59 v 10.19 l 111,71.91 V 3001 c 0,-2.21 1.17,-4.26 3.08,-5.38 1.9,-1.13 4.26,-1.16 6.19,-0.09 z M 905.903,2738.25 H 777.947 l 55.804,104 h 64.815 l -22.963,-42.8 c -0.536,-0.99 -0.781,-2.1 -0.738,-3.19 -0.045,-1.11 0.203,-2.23 0.775,-3.27 z m 461.187,-427.95 46.5,14.02 c 1.08,0.33 2.04,0.93 2.78,1.74 0.81,0.75 1.44,1.72 1.76,2.86 l 17.31,60.1 90.48,-90.48 -113,-34.07 z m -253.34,142.35 v -131.59 l -107.5,57.68 v 131.8 z m 399.23,166.21 -60.29,17.44 -33.91,112.44 60.11,-16.83 z m -438.73,-290.79 42.8,-22.97 c 0.99,-0.53 2.1,-0.78 3.19,-0.73 1.11,-0.05 2.23,0.2 3.27,0.77 l 54.74,30.26 v -127.95 l -104,55.8 z m 52,-7.13 v 135.09 l 61.32,34.5 c 1.93,1.09 3.18,3.15 3.18,5.45 v 0.06 95.15 l 33.37,8.85 89.98,-90.21 -116.17,-35.04 c -2.03,-0.61 -3.61,-2.21 -4.2,-4.24 l -21.57,-74.6 c -0.02,-0.07 -0.04,-0.14 -0.06,-0.21 -0.53,-2.13 0.09,-4.39 1.64,-5.94 l 0.03,-0.02 103.21,-103.22 c 1.63,-1.63 4.02,-2.23 6.23,-1.56 l 18.54,5.59 v -10.19 l -111,-71.91 V 2346 c 0,2.21 -1.17,4.26 -3.08,5.38 -1.9,1.13 -4.26,1.16 -6.19,0.09 z m -153.23,407.2 60.29,-17.44 33.91,-112.44 -60.11,16.83 z m -93.225,-179.73 14.024,-46.5 c 0.327,-1.08 0.935,-2.04 1.74,-2.78 0.748,-0.81 1.72,-1.44 2.857,-1.76 l 60.107,-17.31 -90.479,-90.48 -34.079,113 z m 116.027,60.16 -93.052,-93.05 -35.226,116.8 93.194,93.2 z m 398.608,-164.99 -30.3,54.96 55.52,103.48 30.61,-54.39 z"/>
            </g>
        </g>
    </g>
</svg>
