<?xml version="1.0" encoding="UTF-8" standalone="no"?>
<svg
   width="1005.156"
   height="1007.15"
   viewBox="0 0 1005.156 1007.15"
   version="1.1"
   xml:space="preserve"
   style="clip-rule:evenodd;fill-rule:evenodd;stroke-linejoin:round;stroke-miterlimit:2"
   id="svg4"
   sodipodi:docname="shaded_gradient_threatcl.svg"
   inkscape:version="1.4.3 (0d15f75, 2025-12-25)"
   xmlns:inkscape="http://www.inkscape.org/namespaces/inkscape"
   xmlns:sodipodi="http://sodipodi.sourceforge.net/DTD/sodipodi-0.dtd"
   xmlns="http://www.w3.org/2000/svg"
   xmlns:svg="http://www.w3.org/2000/svg"><sodipodi:namedview
   id="namedview4"
   pagecolor="#ffffff"
   bordercolor="#000000"
   borderopacity="0.25"
   inkscape:showpageshadow="2"
   inkscape:pageopacity="0.0"
   inkscape:pagecheckerboard="0"
   inkscape:deskcolor="#d1d1d1"
   inkscape:zoom="0.18914052"
   inkscape:cx="967.53464"
   inkscape:cy="832.71424"
   inkscape:window-width="1369"
   inkscape:window-height="738"
   inkscape:window-x="0"
   inkscape:window-y="38"
   inkscape:window-maximized="0"
   inkscape:current-layer="svg4" />
    <g
   transform="translate(-7647.424,-959.43)"
   id="g2">
        <g
   id="shaded_gradient_threadcl"
   transform="translate(4583,535)">
            <rect
   x="2639"
   y="0"
   width="1856"
   height="1856"
   style="fill:none"
   id="rect1" />
            <g
   transform="translate(2336,-1899.5)"
   id="g1">
                <path
   d="m 731.652,2898.84 -0.017,-0.03 -2.491,-6.57 -0.72,-6.88 1.042,-6.83 2.793,-6.43 0.51,-0.82 80,-123.5 4.367,-5.19 5.427,-3.88 6.213,-2.45 6.724,-0.84 h 0.58 l 4.074,-13.51 -44.403,-44.4 -4.441,-5.85 -2.675,-6.7 -0.811,-7.17 1.148,-7.26 38.165,-126.54 0.01,-0.04 2.885,-6.4 4.351,-5.37 5.565,-4.09 6.528,-2.58 0.939,-0.22 143.896,-30.76 6.753,-0.58 6.586,1.09 6.12,2.67 5.35,4.15 0.86,0.86 11.94,-6.41 v -62.8 l 0.99,-7.27 2.85,-6.63 4.49,-5.64 5.94,-4.32 116.47,-62.5 0.03,-0.01 6.58,-2.5 6.87,-0.71 6.83,1.04 6.44,2.79 0.81,0.51 123.51,80 5.18,4.37 3.88,5.42 2.45,6.22 0.84,6.72 v 1.88 l 12.51,3.78 44.41,-44.41 5.85,-4.44 6.7,-2.67 7.16,-0.82 7.26,1.15 126.54,38.17 0.04,0.01 6.41,2.88 5.37,4.35 4.09,5.57 2.57,6.53 0.22,0.93 30.76,143.9 0.58,6.76 -1.09,6.58 -2.67,6.12 -4.15,5.35 -0.86,0.86 6.41,11.94 h 62.8 l 7.27,0.99 6.63,2.85 5.65,4.49 4.31,5.95 62.5,116.46 0.02,0.04 2.49,6.57 0.72,6.87 -1.05,6.83 -2.79,6.44 -0.51,0.81 -80,123.5 -4.37,5.19 -5.42,3.88 -6.22,2.45 -6.72,0.84 h -0.58 l -4.07,13.51 44.4,44.41 4.44,5.85 2.68,6.7 0.81,7.16 -1.15,7.26 -38.17,126.54 -0.01,0.04 -2.88,6.41 -4.35,5.37 -5.57,4.09 -6.53,2.57 -0.93,0.22 -143.9,30.76 -6.75,0.58 -6.59,-1.09 -6.12,-2.67 -5.35,-4.15 -0.86,-0.86 -11.94,6.41 v 62.8 l -0.99,7.27 -2.85,6.63 -4.49,5.65 -5.94,4.31 -116.47,62.5 -0.03,0.02 -6.58,2.49 -6.87,0.72 -6.83,-1.05 -6.44,-2.79 -0.81,-0.51 -123.5,-80 -5.19,-4.37 -3.88,-5.42 -2.44,-6.22 -0.85,-6.72 v -1.88 l -12.51,-3.77 -44.41,44.4 -5.85,4.44 -6.7,2.68 -7.16,0.81 -7.26,-1.15 -126.544,-38.17 -0.033,-0.01 -6.409,-2.88 -5.369,-4.35 -4.091,-5.57 -2.578,-6.52 -0.218,-0.94 -30.76,-143.9 -0.576,-6.75 1.089,-6.59 2.666,-6.12 4.156,-5.35 0.853,-0.86 -6.407,-11.94 h -62.797 l -7.276,-0.99 -6.629,-2.85 -5.642,-4.49 -4.318,-5.94 z m 374.358,291.59 -4.54,-1.37 1.56,5.53 3.24,-3.24 z m 293.74,34.1 v -4.42 l -43.04,-24.09 c -0.93,0.45 -1.95,0.66 -2.95,0.62 -1.11,0.04 -2.23,-0.21 -3.27,-0.78 l -54.74,-30.26 v 0.74 z m 0,9.43 v -4.65 l -104,-58.19 v 4.65 z m -4.94,6.44 4.04,-2.17 -103.1,-57.68 v 4.42 z m -8.39,4.5 4.03,-2.16 -94.7,-52.99 v 4.41 z m -8.39,4.5 4.04,-2.16 -86.32,-48.3 v 4.43 z m -25.47,13.67 4.12,-2.21 -60.93,-34.09 v 4.51 z m 16.87,-9.05 4.24,-2.28 -77.92,-43.6 v 4.65 z m -8.4,4.5 4.04,-2.16 -69.32,-38.79 v 4.43 z m -17.07,9.17 4.25,-2.28 -52.46,-29.35 v 4.65 z m -33.78,18.12 4.25,-2.28 -18.68,-10.45 v 4.66 z m 25.38,-13.62 4.04,-2.17 -43.85,-24.53 v 4.42 z m -16.78,9 4.04,-2.16 -27.07,-15.15 v 4.43 z m 8.4,-4.5 4.03,-2.16 -35.46,-19.84 v 4.41 z m 54.81,-94.22 -4.25,2.27 22.01,12.32 v -4.66 z m -80.2,107.85 4.04,-2.17 -10.08,-5.64 v 4.43 z m 58.46,-241.97 v 131.59 l 107.5,-57.68 v -131.8 z m -64.5,245.2 1.68,-0.9 -1.68,-0.94 z m 77.64,-106.47 -4.04,2.17 30.4,17.01 v -4.43 z m -8.4,4.51 -3.92,2.1 38.68,21.64 v -4.3 z m -17.24,-11.53 v -135.09 l -61.32,-34.5 c -1.93,-1.09 -3.18,-3.15 -3.18,-5.45 v -0.06 -95.15 l -33.37,-8.84 -89.98,90.2 116.17,35.04 c 2.03,0.61 3.61,2.21 4.2,4.24 l 21.57,74.6 c 0.02,0.07 0.04,0.14 0.06,0.21 0.53,2.13 -0.09,4.39 -1.64,5.94 l -0.03,0.02 -103.21,103.22 c -1.63,1.63 -4.02,2.23 -6.23,1.56 l -18.54,-5.59 v 10.19 l 111,71.91 V 3155 c 0,-2.21 1.17,-4.26 3.08,-5.38 1.9,-1.13 4.26,-1.16 6.19,-0.09 z m 290.67,-176.27 1.32,-4.39 -113.69,32.11 3.13,3.13 z m -248.04,174.17 -4.03,2.17 13.4,7.5 v -4.43 z m 246.98,-182.22 -3.29,-3.29 -114.69,32.4 3.29,3.29 z m -238.44,177.64 -4.18,2.24 5.01,2.81 v -4.59 z m 231.77,-184.3 -3.13,-3.13 -47.46,13.4 c -0.35,0.98 -0.92,1.84 -1.66,2.52 -0.75,0.81 -1.72,1.44 -2.86,1.77 l -60.1,17.3 0.52,0.53 z m -6.12,60.61 1.35,-4.47 -67.19,18.98 3.19,3.19 z m 11.1,-36.79 1.32,-4.38 -104.44,29.5 3.13,3.12 z m -8.32,27.59 1.32,-4.39 -76.44,21.59 3.13,3.13 z m 5.57,-18.47 1.32,-4.39 -95.19,26.89 3.13,3.13 z m -2.82,9.35 1.39,-4.61 -85.93,24.27 3.29,3.29 z m -8.35,27.67 1.39,-4.61 -57.84,16.33 3.29,3.3 z m -2.75,9.12 1.33,-4.39 -48.36,13.66 3.13,3.13 z m -2.74,9.11 1.32,-4.38 -39.11,11.05 3.13,3.12 z m -5.58,18.47 1.4,-4.61 -20.6,5.82 3.29,3.29 z m 2.82,-9.35 1.33,-4.38 -29.86,8.43 3.13,3.13 z m -27.93,-105.15 -1.33,4.38 33.53,-9.46 -3.13,-3.13 z m 22.36,123.62 1.33,-4.39 -11.11,3.14 3.13,3.13 z m -129.75,-212.43 93.05,93.05 35.23,-116.8 -93.2,-93.2 z m 127.78,218.99 0.55,-1.82 -1.86,0.52 z m -23.14,-121.06 -1.29,4.26 42.65,-12.05 -3.04,-3.04 z m -20.34,4.04 -95.53,-95.52 -67.75,18.96 c -2.14,0.6 -4.48,0.02 -6.1,-1.6 l -0.05,-0.04 -67.28,-67.29 -29.85,17.34 0.16,128.15 106.97,-57.4 c 1.86,-1 4.11,-0.99 5.97,0.04 l 68,37.49 c 0.06,0.03 0.13,0.07 0.19,0.11 1.88,1.12 3.04,3.16 3.04,5.36 v 0.03 145.97 c 0,2.3 -1.27,4.42 -3.3,5.51 l -16.63,8.93 6.72,6.72 129.34,-27.64 -97.24,-97.23 c -1.56,-1.57 -2.18,-3.84 -1.63,-5.98 0.56,-2.14 2.2,-3.84 4.33,-4.45 z m 89.42,-313.93 -2.16,-4.04 -48.3,86.32 h 4.42 z m -63.52,291.42 -1.39,4.61 24.27,-6.85 -3.29,-3.29 z m 5.55,-18.4 -1.37,4.54 5.53,-1.56 -3.24,-3.24 z m -2.79,9.28 -1.33,4.39 14.78,-4.18 -3.13,-3.13 z m 56.26,-290.69 -2.16,-4.03 -52.99,94.7 h 4.41 z m -20.37,-13.33 h -4.42 l -24.09,43.04 c 0.45,0.93 0.65,1.95 0.61,2.95 0.05,1.11 -0.2,2.23 -0.77,3.27 l -30.26,54.74 h 0.74 z m 15.87,4.94 -2.17,-4.04 -57.69,103.1 h 4.43 z m -6.44,-4.94 h -4.65 l -58.19,104 h 4.65 z m 51.85,89.57 -2.28,-4.25 -10.45,18.68 h 4.66 z m -31.79,-59.25 -2.28,-4.24 -43.6,77.92 h 4.65 z m 9.05,16.87 -2.21,-4.12 -34.09,60.93 h 4.51 z m -4.55,-8.47 -2.16,-4.04 -38.79,69.32 h 4.43 z m 22.67,42.25 -2.16,-4.04 -15.15,27.07 h 4.43 z m -13.51,-25.18 -2.27,-4.24 -29.35,52.45 h 4.65 z m 9.01,16.78 -2.16,-4.03 -19.84,35.46 h 4.41 z m -4.5,-8.38 -2.17,-4.04 -24.53,43.85 h 4.42 z m -577.96,464.7 -4.38,-1.33 4.17,14.78 3.13,-3.13 z m -9.12,-2.75 -4.61,-1.4 6.85,24.27 3.29,-3.29 z m -9.34,-2.82 -4.39,-1.33 9.47,33.53 3.13,-3.13 z m -9.13,-2.75 -4.26,-1.29 12.05,42.65 3.04,-3.04 z m -4.04,-20.35 95.52,-95.52 -18.96,-67.75 c -0.59,-2.14 -0.02,-4.48 1.6,-6.1 l 0.05,-0.05 49.12,-49.13 18.16,-18.15 -17.34,-29.85 -128.15,0.16 57.4,106.97 c 1,1.86 0.99,4.11 -0.04,5.97 l -37.49,68 c -0.03,0.06 -0.07,0.13 -0.11,0.19 -1.12,1.88 -3.16,3.04 -5.36,3.04 h -0.03 -145.97 c -2.303,0 -4.419,-1.26 -5.507,-3.29 l -8.929,-16.64 -6.728,6.72 27.646,129.34 97.228,-97.23 c 1.57,-1.57 3.84,-2.19 5.98,-1.64 2.15,0.56 3.84,2.2 4.45,4.33 z m 101.97,-84.29 -93.05,93.05 116.8,35.23 93.2,-93.2 z m -218.991,127.78 1.826,0.55 -0.524,-1.86 z m 6.559,1.97 4.388,1.33 -3.138,-11.11 -3.13,3.13 z m 9.121,2.76 4.614,1.39 -5.817,-20.6 -3.292,3.29 z m 9.347,2.81 4.388,1.33 -8.432,-29.86 -3.13,3.13 z m 9.121,2.76 4.378,1.32 -11.043,-39.11 -3.123,3.13 z m 9.111,2.74 4.388,1.33 -13.658,-48.36 -3.13,3.13 z m 9.122,2.75 4.61,1.39 -16.334,-57.84 -3.292,3.29 z m 9.35,2.82 4.47,1.35 -18.978,-67.19 -3.19,3.19 z m 9.2,2.78 4.39,1.32 -21.59,-76.44 -3.132,3.13 z m 9.12,2.75 4.62,1.39 -24.27,-85.93 -3.3,3.29 z m 9.35,2.82 4.39,1.32 -26.89,-95.19 -3.13,3.13 z m 9.12,2.75 4.38,1.32 -29.5,-104.44 -3.12,3.13 z m 9.11,2.75 4.39,1.32 -32.11,-113.69 -3.13,3.13 z m 8.05,-1.06 3.29,-3.29 -32.39,-114.69 -3.29,3.29 z m 6.66,-6.67 3.13,-3.13 -13.4,-47.46 c -0.98,-0.34 -1.84,-0.92 -2.52,-1.66 -0.81,-0.75 -1.44,-1.72 -1.76,-2.86 l -17.31,-60.1 -0.53,0.52 z m -184.298,-231.77 -2.244,-4.18 -2.803,5.01 h 4.584 z m -4.581,-8.53 -2.168,-4.04 -7.5,13.4 h 4.427 z m -4.505,-8.4 -2.279,-4.25 -12.313,22.01 h 4.655 z m -4.616,-8.6 -2.167,-4.04 -17.011,30.4 h 4.427 z m -4.505,-8.4 -2.103,-3.92 -21.642,38.68 h 4.297 z m 143.235,-4.74 H 879.556 l 57.683,107.5 h 131.801 z m 68.42,100.67 30.3,-54.96 -1.77,-3.31 -30.52,54.55 z m 26.19,-62.63 -2.17,-4.04 -30.52,54.55 2.17,4.04 z m -4.5,-8.39 -2.28,-4.25 -30.53,54.55 2.28,4.25 z m -4.62,-8.61 -2.17,-4.03 -30.52,54.54 2.17,4.04 z m -4.51,-8.39 -2.1,-3.92 -30.52,54.55 2.1,3.92 z m -4.44,-8.28 -2.16,-4.04 -30.52,54.55 2.16,4.04 z m -4.5,-8.39 -2.28,-4.25 -30.52,54.55 2.28,4.25 z m -4.62,-8.61 -2.16,-4.03 -30.53,54.54 2.17,4.04 z m -4.5,-8.39 -2.16,-4.03 -30.53,54.55 2.17,4.03 z m 315.83,22.52 -4.25,2.27 54.55,30.53 4.24,-2.28 z m -8.61,4.61 -4.03,2.17 54.54,30.52 4.04,-2.17 z m -8.39,4.51 -3.92,2.1 54.55,30.52 3.92,-2.1 z m -8.28,4.44 -4.04,2.16 54.55,30.53 4.04,-2.17 z m -8.39,4.5 -4.25,2.28 54.55,30.52 4.25,-2.28 z m -8.61,4.62 -4.03,2.17 54.54,30.52 4.04,-2.17 z m -8.39,4.5 -4.03,2.16 54.55,30.53 4.03,-2.17 z m -8.38,4.5 -4.04,2.17 54.54,30.52 4.04,-2.17 z m -8.4,4.51 -4.25,2.28 54.55,30.52 4.25,-2.28 z m -8.6,4.61 -4.04,2.17 54.55,30.52 4.03,-2.17 z m -8.4,4.51 -2.97,1.59 54.39,30.61 3.13,-1.68 z m -18.81,93.92 -17.44,-60.29 -3.6,-1.08 16.99,60.15 z m -25.77,-62.8 -4.39,-1.32 16.99,60.15 4.39,1.32 z m -9.12,-2.75 -4.62,-1.39 16.99,60.15 4.62,1.39 z m -9.35,-2.82 -4.39,-1.32 16.99,60.15 4.39,1.32 z m -9.12,-2.75 -4.26,-1.28 16.99,60.15 4.26,1.28 z m -8.99,-2.71 -4.39,-1.33 16.99,60.16 4.39,1.32 z m -9.12,-2.75 -4.62,-1.39 16.99,60.15 4.62,1.39 z m -9.35,-2.82 -4.39,-1.33 16.99,60.16 4.39,1.32 z m -9.12,-2.75 -4.38,-1.32 16.99,60.15 4.38,1.32 z m -9.11,-2.75 -4.39,-1.32 16.99,60.15 4.39,1.32 z m -9.12,-2.75 -4.62,-1.39 16.99,60.15 4.62,1.39 z m -9.35,-2.82 -4.39,-1.32 16.99,60.15 4.39,1.32 z m -9.12,-2.75 -3.23,-0.98 16.82,60.11 3.4,1.02 z m -90.43,-76.91 -2.17,-4.04 -30.52,54.54 2.17,4.04 z m -4.51,-8.4 -2.27,-4.25 -30.53,54.55 2.28,4.25 z m -4.61,-8.6 -2.17,-4.04 -30.52,54.55 2.17,4.04 z m -4.51,-8.4 -1.59,-2.97 -30.61,54.39 1.68,3.13 z m 102.77,-84.82 17.09,17.05 2.33,3.04 1.45,3.48 0.5,3.73 -0.48,3.81 -6.2,23.37 23.42,-0.03 3.8,0.5 3.49,1.44 3,2.29 2.34,3.03 12.17,20.95 16.05,-16.09 3.04,-2.33 3.49,-1.45 3.73,-0.5 3.81,0.48 23.37,6.2 -0.03,-23.42 0.5,-3.8 1.44,-3.49 2.29,-3 3.03,-2.34 20.95,-12.17 -17.09,-17.05 -2.33,-3.05 -1.45,-3.48 -0.5,-3.73 0.48,-3.81 6.2,-23.37 -23.42,0.03 -3.8,-0.5 -3.49,-1.44 -3,-2.28 -2.34,-3.04 -12.17,-20.95 -16.05,16.09 -3.04,2.33 -3.49,1.45 -3.73,0.5 -3.81,-0.48 -23.37,-6.2 0.03,23.42 -0.5,3.8 -1.44,3.49 -2.29,3 -3.03,2.34 z m -197.69,65.01 60.29,-17.44 1.08,-3.6 -60.15,16.99 z m 62.8,-25.77 1.32,-4.39 -60.149,16.99 -1.323,4.39 z m 2.75,-9.12 1.39,-4.61 -60.15,16.98 -1.392,4.62 z m 2.82,-9.35 1.32,-4.39 -60.149,16.99 -1.324,4.39 z m 2.75,-9.12 1.29,-4.26 -60.157,16.99 -1.285,4.26 z m 2.71,-8.99 1.33,-4.39 -60.156,16.99 -1.324,4.39 z m 2.75,-9.12 1.4,-4.62 -60.157,16.99 -1.392,4.62 z m 2.82,-9.35 1.33,-4.39 -60.156,16.99 -1.324,4.39 z m 2.75,-9.12 1.32,-4.38 -60.149,16.99 -1.32,4.38 z m 2.75,-9.11 1.33,-4.39 -60.158,16.99 -1.323,4.39 z m 2.75,-9.12 1.39,-4.62 -60.149,16.99 -1.392,4.62 z m 2.82,-9.35 1.33,-4.39 -60.158,16.99 -1.324,4.39 z m 2.75,-9.12 0.98,-3.23 -60.106,16.82 -1.025,3.4 z m -53.16,-80.42 54.96,30.3 3.31,-1.78 -54.54,-30.52 z m 62.63,26.18 4.04,-2.17 -54.55,-30.52 -4.04,2.17 z m 8.39,-4.5 4.25,-2.28 -54.55,-30.53 -4.24,2.28 z m 8.61,-4.62 4.04,-2.17 -54.55,-30.52 -4.04,2.17 z m 8.39,-4.5 3.92,-2.11 -54.55,-30.52 -3.92,2.1 z m 8.28,-4.45 4.04,-2.16 -54.55,-30.52 -4.04,2.16 z m 8.39,-4.5 4.25,-2.28 -54.55,-30.52 -4.25,2.28 z m 8.61,-4.62 4.03,-2.16 -54.54,-30.52 -4.04,2.16 z m 8.39,-4.5 4.03,-2.16 -54.55,-30.52 -4.03,2.16 z m 8.38,-4.5 4.04,-2.17 -54.54,-30.52 -4.04,2.17 z m 8.4,-4.5 4.25,-2.28 -54.55,-30.53 -4.25,2.28 z m 8.6,-4.62 4.04,-2.17 -54.55,-30.52 -4.03,2.17 z m 8.4,-4.51 2.97,-1.59 -54.39,-30.61 -3.13,1.68 z m 18.81,-93.92 17.44,60.29 3.6,1.08 -16.99,-60.15 z m 25.77,62.8 4.39,1.32 -16.99,-60.15 -4.39,-1.32 z m 9.12,2.75 4.62,1.39 -16.99,-60.15 -4.62,-1.39 z m 9.35,2.82 4.39,1.32 -16.99,-60.15 -4.39,-1.32 z m 9.12,2.75 4.26,1.29 -16.99,-60.16 -4.26,-1.28 z m 8.99,2.71 4.39,1.33 -16.99,-60.16 -4.39,-1.32 z m 9.12,2.76 4.62,1.39 -16.99,-60.16 -4.62,-1.39 z m 9.35,2.81 4.39,1.33 -16.99,-60.16 -4.39,-1.32 z m 9.12,2.75 4.38,1.32 -16.99,-60.15 -4.38,-1.32 z m 9.11,2.75 4.39,1.33 -16.99,-60.16 -4.39,-1.32 z m 9.12,2.75 4.62,1.4 -16.99,-60.16 -4.62,-1.39 z m 9.35,2.82 4.39,1.33 -16.99,-60.16 -4.39,-1.32 z m 9.12,2.75 3.24,0.98 -16.83,-60.1 -3.4,-1.03 z m 80.43,-53.16 -30.3,54.96 1.77,3.31 30.52,-54.54 z m -26.19,62.63 2.17,4.04 30.52,-54.55 -2.17,-4.04 z m 4.51,8.39 2.27,4.25 30.53,-54.55 -2.28,-4.24 z m 4.61,8.61 2.17,4.04 30.52,-54.55 -2.17,-4.04 z m 4.51,8.39 2.1,3.92 30.52,-54.55 -2.1,-3.92 z m 4.44,8.28 2.16,4.04 30.53,-54.55 -2.17,-4.04 z m 4.5,8.39 2.28,4.25 30.52,-54.55 -2.28,-4.25 z m 4.62,8.61 2.16,4.03 30.53,-54.54 -2.17,-4.04 z m 4.5,8.39 2.16,4.03 30.53,-54.55 -2.17,-4.03 z m 4.5,8.39 2.17,4.04 30.52,-54.55 -2.17,-4.04 z m 4.51,8.39 2.27,4.25 30.53,-54.55 -2.28,-4.25 z m 4.61,8.6 2.17,4.04 30.52,-54.55 -2.17,-4.03 z m 4.51,8.4 1.59,2.97 30.61,-54.39 -1.68,-3.13 z m 94.92,19.81 -60.29,17.44 -1.08,3.6 60.15,-16.99 z m -62.8,25.77 -1.32,4.39 60.15,-16.99 1.32,-4.39 z m -2.75,9.12 -1.39,4.62 60.15,-16.99 1.39,-4.62 z m -2.82,9.35 -1.32,4.39 60.15,-16.99 1.32,-4.39 z m -2.75,9.12 -1.29,4.26 60.16,-16.99 1.28,-4.26 z m -2.71,8.99 -1.33,4.39 60.16,-16.99 1.32,-4.39 z m -2.75,9.12 -1.4,4.62 60.16,-16.99 1.39,-4.61 z m -2.82,9.35 -1.33,4.39 60.16,-16.99 1.32,-4.39 z m -2.75,9.12 -1.32,4.38 60.15,-16.99 1.32,-4.38 z m -2.75,9.11 -1.32,4.39 60.15,-16.99 1.32,-4.39 z m -2.75,9.12 -1.39,4.62 60.15,-16.99 1.39,-4.61 z m -2.82,9.35 -1.33,4.39 60.16,-16.99 1.32,-4.39 z m -2.75,9.12 -0.98,3.24 60.11,-16.83 1.02,-3.4 z m 53.16,80.43 -54.96,-30.3 -3.31,1.77 54.54,30.53 z m -62.63,-26.19 -4.04,2.17 54.55,30.52 4.04,-2.17 z M 766.995,2879.75 H 904.5 c 2.212,0 4.26,1.17 5.383,3.08 1.124,1.9 1.157,4.26 0.087,6.2 l -30.532,55.22 h 135.092 l 34.5,-61.31 c 1.09,-1.94 3.15,-3.19 5.45,-3.19 h 0.06 95.15 l 8.85,-33.37 -91.21,-90.97 -35.04,116.16 c -0.61,2.03 -2.21,3.61 -4.24,4.2 l -74.596,21.57 c -0.07,0.02 -0.141,0.04 -0.213,0.06 -2.129,0.53 -4.387,-0.09 -5.942,-1.64 l -0.022,-0.03 -103.216,-103.21 c -1.628,-1.63 -2.229,-4.02 -1.564,-6.22 l 5.291,-17.55 h -8.89 z m 0.794,12.5 h -1.842 l 0.901,1.68 z m 18.631,0 h -4.655 l -8.075,14.43 2.279,4.25 z m -9.429,0 h -4.428 l -3.377,6.04 2.167,4.04 z m 116.912,0 h -0.743 l -58.192,104 h 4.427 l 24.083,-43.04 c -0.449,-0.93 -0.653,-1.95 -0.613,-2.95 -0.045,-1.1 0.203,-2.23 0.775,-3.27 z m -98.281,0 h -4.427 l -12.889,23.03 2.168,4.04 z m 18.393,0 h -4.427 l -22.278,39.82 2.167,4.03 z m -9.202,0 h -4.417 l -17.585,31.43 2.162,4.03 z m 83.572,0 h -4.654 l -58.192,104 h 4.655 z m -64.941,0 h -4.655 l -26.974,48.21 2.278,4.25 z m 18.488,0 h -4.428 l -36.528,65.28 2.168,4.04 z m -9.202,0 h -4.511 l -31.788,56.81 2.208,4.12 z m 46.226,0 h -4.427 l -55.428,99.06 2.167,4.04 z m -27.595,0 h -4.655 l -41.225,73.68 2.279,4.25 z m 18.393,0 h -4.417 l -50.736,90.68 2.163,4.02 z m -9.191,0 h -4.427 l -46.039,82.28 2.167,4.04 z m 7.504,-190.74 1.37,-4.54 -5.524,1.56 3.241,3.24 z m 2.797,-9.28 1.324,-4.38 -14.782,4.17 3.131,3.13 z m 2.751,-9.12 1.392,-4.61 -24.268,6.85 3.291,3.29 z m 2.819,-9.34 1.323,-4.39 -33.525,9.47 3.131,3.13 z m 2.751,-9.13 1.285,-4.26 -42.653,12.05 3.039,3.04 z m 20.34,-4.04 95.527,95.53 67.748,-18.97 c 2.14,-0.59 4.48,-0.02 6.1,1.6 l 0.05,0.05 67.28,67.28 29.85,-17.34 -0.16,-128.15 -106.97,57.4 c -1.86,1 -4.11,0.99 -5.97,-0.04 l -67.997,-37.49 c -0.065,-0.03 -0.129,-0.07 -0.192,-0.11 -1.884,-1.12 -3.041,-3.16 -3.041,-5.36 V 2674.97 2529 c 0,-2.3 1.266,-4.42 3.295,-5.51 l 16.645,-8.92 -6.734,-6.73 -129.332,27.64 97.231,97.23 c 1.564,1.57 2.185,3.84 1.632,5.98 -0.552,2.15 -2.196,3.84 -4.322,4.45 z m 84.297,101.97 -93.052,-93.05 -35.226,116.8 93.194,93.2 z m -127.778,-218.99 -0.551,1.83 1.854,-0.53 z m -1.978,6.56 -1.324,4.39 11.111,-3.14 -3.13,-3.13 z m -2.751,9.12 -1.392,4.61 20.598,-5.81 -3.292,-3.3 z m -2.819,9.35 -1.323,4.38 29.855,-8.43 -3.131,-3.13 z m 525.894,-98.49 4.61,1.39 -6.85,-24.27 -3.29,3.29 z m 318.42,286.59 -2.16,-4.03 -5.64,10.07 h 4.43 z m -241.96,-58.46 h 131.59 l -57.68,-107.5 h -131.8 z m 245.2,64.5 -0.9,-1.68 -0.94,1.68 z m -111.09,-86.24 2.28,4.25 12.32,-22.01 h -4.66 z m -2.4,34.24 h -135.09 l -34.5,61.32 c -1.09,1.93 -3.15,3.18 -5.45,3.18 h -0.06 -95.15 l -8.85,33.37 91.21,90.98 35.04,-116.17 c 0.61,-2.02 2.21,-3.61 4.24,-4.19 l 74.6,-21.58 c 0.07,-0.02 0.14,-0.04 0.21,-0.06 2.13,-0.53 4.39,0.09 5.94,1.64 l 0.02,0.03 103.22,103.21 c 1.63,1.63 2.23,4.02 1.56,6.23 l -5.29,17.54 h 8.89 l 71.91,-111 H 1557.5 c -2.21,0 -4.26,-1.17 -5.38,-3.07 -1.13,-1.91 -1.16,-4.27 -0.09,-6.2 z m 7.02,-25.64 2.17,4.04 17.01,-30.4 h -4.43 z m 4.51,8.4 2.1,3.92 21.64,-38.68 h -4.3 z m -151.1,-262.36 -4.39,-1.32 21.59,76.44 3.13,-3.13 z m 137.47,236.97 2.17,4.04 7.5,-13.41 h -4.43 z m -182.22,-246.98 -3.29,3.29 32.39,114.69 3.29,-3.29 z m 177.64,238.44 2.24,4.18 2.8,-5.01 h -4.58 z m -184.3,-231.77 -3.13,3.13 13.4,47.46 c 0.98,0.35 1.84,0.92 2.52,1.66 0.81,0.75 1.44,1.72 1.76,2.86 l 17.31,60.1 0.53,-0.52 z m -26.31,39.56 4.38,1.32 -4.17,-14.78 -3.13,3.13 z m 68.6,-38.97 -4.62,-1.39 24.27,85.93 3.3,-3.29 z m -27.58,-8.32 -4.39,-1.32 32.11,113.69 3.13,-3.13 z m 18.23,5.5 -4.39,-1.32 26.89,95.19 3.13,-3.13 z m -9.12,-2.75 -4.38,-1.32 29.5,104.44 3.12,-3.12 z m -31.66,50.1 4.38,1.33 -9.47,-33.53 -3.13,3.13 z m 77.8,-36.18 -4.61,-1.39 16.33,57.84 3.3,-3.29 z m -9.35,-2.82 -4.47,-1.35 18.98,67.19 3.19,-3.19 z m 46.05,13.89 -4.61,-1.4 5.81,20.6 3.3,-3.29 z m -27.58,-8.32 -4.39,-1.32 13.66,48.35 3.13,-3.13 z m 18.23,5.5 -4.38,-1.33 8.43,29.86 3.13,-3.13 z m -9.12,-2.75 -4.38,-1.32 11.05,39.1 3.12,-3.13 z m -86.91,33.43 4.26,1.29 -12.05,-42.65 -3.04,3.04 z m 114.5,-25.11 -4.39,-1.33 3.14,11.11 3.13,-3.13 z m 6.56,1.98 -1.82,-0.56 0.52,1.86 z m -117.02,43.48 -95.52,95.52 18.96,67.75 c 0.59,2.14 0.02,4.48 -1.6,6.11 l -0.05,0.04 -67.28,67.28 17.34,29.85 128.15,-0.16 -57.4,-106.96 c -1,-1.87 -0.99,-4.12 0.04,-5.98 l 37.49,-68 c 0.03,-0.06 0.07,-0.12 0.11,-0.19 1.12,-1.88 3.16,-3.04 5.36,-3.04 h 0.03 145.97 c 2.3,0 4.42,1.27 5.51,3.3 l 8.93,16.63 6.72,-6.72 -27.64,-129.34 -97.23,97.24 c -1.57,1.56 -3.84,2.18 -5.98,1.63 -2.15,-0.56 -3.83,-2.2 -4.45,-4.32 z m -101.97,84.29 93.05,-93.05 -116.8,-35.23 -93.2,93.2 z m 61.06,-115.75 4.54,1.37 -1.56,-5.53 -3.24,3.25 z m -255.02,-68.09 -4.04,2.16 69.32,38.79 v -4.42 z m -38.72,33.99 v 4.43 l 43.04,24.08 c 0.93,-0.45 1.95,-0.65 2.95,-0.61 1.11,-0.05 2.23,0.2 3.27,0.77 l 54.74,30.26 v -0.74 z m 4.94,-15.87 -4.04,2.17 103.1,57.69 v -4.43 z m -4.94,6.44 v 4.65 l 104,58.2 v -4.66 z m 30.32,-20.06 -4.24,2.28 77.92,43.6 v -4.65 z m -16.99,9.12 -4.03,2.16 94.7,53 v -4.42 z m 8.39,-4.5 -4.04,2.16 86.32,48.3 v -4.42 z m 59.25,-31.79 -4.04,2.16 27.07,15.15 v -4.42 z m -33.78,18.12 -4.12,2.21 60.93,34.09 v -4.51 z m 8.6,-4.61 -4.25,2.27 52.46,29.36 v -4.66 z m 16.78,-9.01 -4.03,2.16 35.46,19.84 v -4.41 z m -8.38,4.5 -4.04,2.17 43.85,24.53 v -4.42 z m -280.695,194.92 -1.32,4.38 39.102,-11.05 -3.123,-3.12 z m 306.075,-208.54 -4.25,2.28 18.68,10.45 v -4.65 z m 8.39,-4.5 -4.04,2.16 10.08,5.64 v -4.43 z m -58.46,241.96 v -131.59 l -107.5,57.68 v 131.8 z m 64.5,-245.2 -1.68,0.9 1.68,0.94 z m -94.63,115.59 4.03,-2.17 -13.4,-7.5 v 4.43 z m 42.63,-2.1 v 135.09 l 61.32,34.5 c 1.93,1.09 3.18,3.15 3.18,5.45 v 0.06 95.15 l 33.37,8.85 89.98,-90.21 -116.17,-35.04 c -2.03,-0.61 -3.61,-2.21 -4.2,-4.24 l -21.57,-74.6 c -0.02,-0.07 -0.04,-0.14 -0.06,-0.21 -0.53,-2.13 0.09,-4.38 1.64,-5.94 l 0.03,-0.02 103.21,-103.22 c 1.63,-1.63 4.02,-2.23 6.23,-1.56 l 18.54,5.59 v -10.19 l -111,-71.9 V 2500 c 0,2.21 -1.17,4.26 -3.08,5.38 -1.9,1.13 -4.26,1.16 -6.19,0.09 z m -17.24,-11.52 3.92,-2.11 -38.68,-21.64 v 4.3 z m -17,9.12 4.25,-2.28 -22.01,-12.32 v 4.66 z m 8.6,-4.62 4.04,-2.17 -30.4,-17.01 v 4.43 z m -262.279,174.18 -1.32,4.38 104.436,-29.5 -3.123,-3.12 z m 236.749,-160.48 4.18,-2.24 -5.01,-2.8 v 4.58 z m -231.77,184.3 3.131,3.13 47.463,-13.4 c 0.342,-0.98 0.915,-1.84 1.655,-2.52 0.748,-0.81 1.72,-1.44 2.857,-1.76 l 60.107,-17.31 -0.526,-0.53 z m -7.726,-14.71 -1.324,4.39 113.694,-32.11 -3.131,-3.13 z m 1.059,8.05 3.291,3.29 114.687,-32.39 -3.291,-3.29 z m 18.355,-72.42 -1.324,4.39 48.359,-13.66 -3.13,-3.13 z m -13.916,46.14 -1.323,4.39 95.189,-26.89 -3.131,-3.13 z m 11.165,-37.02 -1.392,4.61 57.846,-16.33 -3.291,-3.29 z m -8.346,27.67 -1.392,4.62 85.932,-24.27 -3.291,-3.3 z m 5.527,-18.32 -1.349,4.47 67.188,-18.98 -3.19,-3.19 z m -2.776,9.2 -1.324,4.39 76.446,-21.59 -3.131,-3.13 z"
   style="fill:url(#_Linear1)"
   id="path1" />
            </g>
        </g>
    </g>
    <defs
   id="defs4">
        <linearGradient
   id="_Linear1"
   x1="0"
   y1="0"
   x2="1"
   y2="0"
   gradientUnits="userSpaceOnUse"
   gradientTransform="matrix(1005.15,8,-8,1005.15,728.424,2879.5)"><stop
     offset="0"
     style="stop-color:rgb(20,194,182);stop-opacity:1"
     id="stop2" /><stop
     offset="0.5"
     style="stop-color:rgb(55,164,201);stop-opacity:1"
     id="stop3" /><stop
     offset="1"
     style="stop-color:rgb(122,106,238);stop-opacity:1"
     id="stop4" /></linearGradient>
    </defs>
</svg>
